#VRML V2.0 utf8
# 3D model generated by kicad-lcsc-manager
# Based on easyeda2kicad.py v1.0.1

Shape{
    appearance Appearance {
        material  Material {
            diffuseColor 0.10980392156862745 0.10980392156862745 0.10980392156862745
            specularColor 0.0784313725490196 0.0784313725490196 0.0784313725490196
            ambientIntensity 0.1098
            transparency 0.0
            shininess 0.5
        }
    }
    geometry IndexedFaceSet {
        ccw TRUE
        solid FALSE
        coord DEF co Coordinate {
            point [
                -0.3051 -0.1673 0.0, -0.4921 -0.1673 0.0, -0.4921 -0.0002 0.0, -0.0338 0.0 0.0, -0.0231 0.0 0.0, -0.0193 -0.0002 0.0, -0.4921 0.1673 0.0, -0.2264 0.1673 0.0, -0.0835 0.011 0.0, -0.0672 0.011 0.0, -0.0635 0.0 0.0, -0.0399 0.0388 0.0, -0.0445 0.0371 0.0, -0.0726 0.0394 0.0, -0.0488 0.0343 0.0, -0.0307 0.376 0.0, -0.0251 0.3686 0.0, -0.0489 0.0342 0.0, -0.0516 0.0311 0.0, -0.0535 0.0278 0.0, -0.0932 0.0 0.0, -0.0875 0.0 0.0, -0.0577 0.0 0.0, -0.0528 0.0108 0.0, -0.0506 0.0073 0.0, -0.0342 0.3845 0.0, -0.2264 0.3937 0.0, -0.0354 0.3937 0.0, -0.0342 0.0394 0.0, -0.0231 0.0394 0.0, -0.0193 0.3642 0.0, -0.0545 0.0239 0.0, -0.0548 0.0202 0.0, -0.0543 0.0149 0.0, -0.0473 0.0042 0.0, -0.0432 0.0018 0.0, -0.0387 0.0004 0.0, -0.2264 -0.2461 0.0, -0.0779 0.0394 0.0, -0.0307 -0.376 0.0, -0.2264 -0.3937 0.0, -0.0342 -0.3845 0.0, -0.0354 -0.3937 0.0, 0.4921 -0.0002 0.0, 0.4921 -0.1673 0.0, 0.0265 -0.0002 0.0, 0.2264 -0.1673 0.0, -0.0092 -0.3595 0.0, -0.0177 -0.363 0.0, -0.0193 -0.3642 0.0, -0.0251 -0.3686 0.0, 0.0307 -0.376 0.0, 0.0342 -0.3845 0.0, 0.2264 -0.3937 0.0, 0.0354 -0.3937 0.0, 0.0215 -0.0002 0.0, 0.0231 -0.0005 0.0, 0.0 -0.3583 0.0, 0.0092 -0.3595 0.0, 0.0251 -0.3686 0.0, 0.0177 -0.363 0.0, 0.0242 -0.0005 0.0, -0.0154 0.0043 0.0, -0.0154 0.0 0.0, 0.0057 0.0 0.0, -0.0145 0.0394 0.0, -0.0145 0.035 0.0, 0.0134 0.002 0.0, 0.0134 0.0064 0.0, 0.0057 0.0394 0.0, 0.0176 0.0003 0.0, 0.0609 0.0043 0.0, 0.046 0.0043 0.0, 0.0609 0.0394 0.0, -0.0177 0.363 0.0, 0.0662 0.0394 0.0, 0.2264 0.1673 0.0, 0.0662 0.0 0.0, 0.4921 0.1673 0.0, -0.0135 0.0178 0.0, 0.0004 0.0178 0.0, 0.0004 0.0043 0.0, -0.0135 0.0221 0.0, 0.0004 0.0221 0.0, 0.0004 0.035 0.0, 0.0265 0.0351 0.0, 0.0294 0.034 0.0, 0.0141 0.006 0.0, 0.0321 0.0322 0.0, 0.0345 0.0296 0.0, 0.0374 0.0193 0.0, 0.037 0.015 0.0, 0.0359 0.0116 0.0, 0.0271 0.0043 0.0, 0.0235 0.0038 0.0, 0.03 0.0053 0.0, 0.0324 0.0069 0.0, 0.0343 0.0089 0.0, 0.0182 0.0044 0.0, -0.0092 0.3595 0.0, 0.0 0.3583 0.0, 0.0092 0.3595 0.0, 0.0177 0.363 0.0, 0.0383 0.0327 0.0, 0.0347 0.0361 0.0, 0.0361 0.0265 0.0, 0.0372 0.0223 0.0, 0.046 0.0 0.0, 0.0291 0.0 0.0, 0.0329 0.0013 0.0, 0.036 0.0034 0.0, 0.039 0.0065 0.0, 0.0411 0.0102 0.0, 0.0423 0.0144 0.0, 0.0251 0.3686 0.0, 0.0307 0.376 0.0, 0.2264 0.3937 0.0, 0.0342 0.3845 0.0, 0.0354 0.3937 0.0, 0.031 0.0383 0.0, 0.0266 0.0395 0.0, 0.0226 0.0399 0.0, 0.0427 0.0189 0.0, 0.0421 0.0245 0.0, 0.0406 0.029 0.0, 0.0179 0.0395 0.0, 0.0134 0.0383 0.0, 0.0134 0.033 0.0, 0.0178 0.0349 0.0, 0.0226 0.0355 0.0
            ]
        }
        coordIndex [
            0,1,2,-1,3,4,5,-1,2,6,7,-1,8,9,10,-1,11,12,13,-1,13,12,14,-1,7,15,16,-1,14,17,13,-1,13,17,18,-1,13,18,19,-1,20,21,5,-1,22,23,24,-1,15,7,25,-1,25,7,26,-1,25,26,27,-1,11,13,28,-1,28,13,7,-1,28,7,29,-1,29,7,16,-1,29,16,30,-1,19,31,13,-1,13,31,32,-1,13,32,22,-1,22,32,33,-1,22,33,23,-1,24,34,22,-1,22,34,35,-1,22,35,36,-1,36,3,22,-1,22,3,5,-1,22,5,10,-1,10,5,21,-1,10,21,8,-1,37,0,5,-1,5,0,2,-1,5,2,20,-1,20,2,7,-1,20,7,38,-1,38,7,13,-1,37,39,40,-1,40,39,41,-1,40,41,42,-1,43,44,45,-1,45,44,46,-1,47,48,5,-1,5,48,49,-1,5,49,37,-1,37,49,50,-1,37,50,39,-1,51,46,52,-1,52,46,53,-1,52,53,54,-1,55,56,57,-1,57,56,58,-1,51,59,46,-1,46,59,60,-1,46,60,45,-1,45,60,58,-1,45,58,61,-1,61,58,56,-1,62,63,5,-1,5,63,64,-1,65,66,5,-1,67,64,68,-1,68,64,69,-1,67,70,64,-1,64,70,55,-1,64,55,5,-1,5,55,57,-1,5,57,47,-1,71,72,73,-1,73,72,30,-1,73,30,74,-1,4,29,5,-1,5,29,30,-1,5,30,65,-1,65,30,69,-1,75,76,77,-1,77,76,78,-1,79,80,81,-1,81,62,79,-1,79,62,5,-1,79,5,82,-1,82,5,66,-1,82,66,83,-1,83,66,84,-1,85,86,87,-1,87,86,88,-1,87,88,89,-1,90,91,87,-1,87,91,92,-1,93,94,95,-1,95,94,96,-1,92,97,87,-1,87,97,96,-1,87,96,98,-1,98,96,94,-1,74,99,73,-1,73,99,100,-1,73,100,75,-1,75,100,101,-1,75,101,76,-1,76,101,102,-1,30,103,104,-1,89,105,87,-1,87,105,106,-1,87,106,90,-1,78,43,77,-1,77,43,45,-1,77,45,107,-1,107,45,108,-1,107,108,109,-1,109,110,107,-1,107,110,111,-1,107,111,72,-1,72,111,112,-1,72,112,113,-1,102,114,76,-1,76,114,115,-1,76,115,116,-1,116,115,117,-1,116,117,118,-1,104,119,30,-1,30,119,120,-1,30,120,121,-1,113,122,72,-1,72,122,123,-1,72,123,30,-1,30,123,124,-1,30,124,103,-1,121,125,30,-1,30,125,126,-1,30,126,69,-1,69,126,127,-1,69,127,68,-1,68,127,128,-1,68,128,87,-1,87,128,129,-1,87,129,85,-1,
        ]
    }
}
Shape{
    appearance Appearance {
        material  Material {
            diffuseColor 0.9686274509803922 0.8784313725490196 0.6
            specularColor 0.6784313725490196 0.615686274509804 0.4196078431372549
            ambientIntensity 0.8737
            transparency 0.0
            shininess 0.5
        }
    }
    geometry IndexedFaceSet {
        ccw TRUE
        solid FALSE
        coord DEF co Coordinate {
            point [
                -0.4774 0.3681 0.0, -0.2264 0.1673 0.0, -0.4845 0.3652 0.0, -0.4921 0.1673 0.0, -0.4921 0.3642 0.0, -0.4712 0.3728 0.0, -0.4666 0.3789 0.0, -0.2264 0.3937 0.0, -0.4636 0.3861 0.0, -0.4626 0.3937 0.0, -0.3051 -0.1673 0.0, -0.2264 -0.2461 0.0, -0.4666 -0.3789 0.0, -0.2264 -0.3937 0.0, -0.4626 -0.3937 0.0, -0.4636 -0.3861 0.0, -0.4712 -0.3728 0.0, -0.4774 -0.3681 0.0, -0.4921 -0.1673 0.0, -0.4845 -0.3652 0.0, -0.4921 -0.3642 0.0, 0.4774 -0.3681 0.0, 0.2264 -0.1673 0.0, 0.4845 -0.3652 0.0, 0.4921 -0.1673 0.0, 0.4921 -0.3642 0.0, 0.4712 -0.3728 0.0, 0.4666 -0.3789 0.0, 0.2264 -0.3937 0.0, 0.4636 -0.3861 0.0, 0.4626 -0.3937 0.0
            ]
        }
        coordIndex [
            0,1,2,-1,2,1,3,-1,2,3,4,-1,0,5,1,-1,1,5,6,-1,1,6,7,-1,7,6,8,-1,7,8,9,-1,10,11,12,-1,13,14,11,-1,11,14,15,-1,11,15,12,-1,12,16,10,-1,10,16,17,-1,10,17,18,-1,18,17,19,-1,18,19,20,-1,21,22,23,-1,23,22,24,-1,23,24,25,-1,21,26,22,-1,22,26,27,-1,22,27,28,-1,28,27,29,-1,28,29,30,-1,
        ]
    }
}
Shape{
    appearance Appearance {
        material  Material {
            diffuseColor 0.10980392156862745 0.10980392156862745 0.10980392156862745
            specularColor 0.0784313725490196 0.0784313725490196 0.0784313725490196
            ambientIntensity 0.1098
            transparency 0.0
            shininess 0.5
        }
    }
    geometry IndexedFaceSet {
        ccw TRUE
        solid FALSE
        coord DEF co Coordinate {
            point [
                0.0354 0.3937 0.0, 0.0354 0.3937 0.3543, 0.2264 0.3937 0.0, 0.4626 0.3937 0.3543, 0.4626 0.3937 0.0, -0.0354 -0.3937 0.0, -0.0354 -0.3937 0.3543, -0.2264 -0.3937 0.0, -0.4626 -0.3937 0.3543, -0.4626 -0.3937 0.0
            ]
        }
        coordIndex [
            0,1,2,-1,2,1,3,-1,2,3,4,-1,5,6,7,-1,7,6,8,-1,7,8,9,-1,
        ]
    }
}
Shape{
    appearance Appearance {
        material  Material {
            diffuseColor 0.9686274509803922 0.8784313725490196 0.6
            specularColor 0.6784313725490196 0.615686274509804 0.4196078431372549
            ambientIntensity 0.8737
            transparency 0.0
            shininess 0.5
        }
    }
    geometry IndexedFaceSet {
        ccw TRUE
        solid FALSE
        coord DEF co Coordinate {
            point [
                0.4134 0.3543 0.3543, 0.4134 0.3543 0.3839, 0.4221 0.3533 0.3839, 0.4221 0.3533 0.3543, 0.4305 0.3504 0.3839, 0.4305 0.3504 0.3543, 0.4379 0.3457 0.3839, 0.4379 0.3457 0.3543, 0.4442 0.3395 0.3839, 0.4442 0.3395 0.3543, 0.4489 0.332 0.3839, 0.4489 0.332 0.3543, 0.4518 0.3237 0.3839, 0.4518 0.3237 0.3543, 0.4528 0.315 0.3839, 0.4528 0.315 0.3543, 0.4528 -0.315 0.3839, 0.4528 -0.315 0.3543, 0.4518 -0.3237 0.3839, 0.4518 -0.3237 0.3543, 0.4489 -0.332 0.3839, 0.4489 -0.332 0.3543, 0.4442 -0.3395 0.3839, 0.4442 -0.3395 0.3543, 0.4379 -0.3457 0.3839, 0.4379 -0.3457 0.3543, 0.4305 -0.3504 0.3839, 0.4305 -0.3504 0.3543, 0.4221 -0.3533 0.3839, 0.4221 -0.3533 0.3543, 0.4134 -0.3543 0.3839, 0.4134 -0.3543 0.3543, -0.4134 -0.3543 0.3839, -0.4134 -0.3543 0.3543, -0.4221 -0.3533 0.3839, -0.4221 -0.3533 0.3543, -0.4305 -0.3504 0.3839, -0.4305 -0.3504 0.3543, -0.4379 -0.3457 0.3839, -0.4379 -0.3457 0.3543, -0.4442 -0.3395 0.3839, -0.4442 -0.3395 0.3543, -0.4489 -0.332 0.3839, -0.4489 -0.332 0.3543, -0.4518 -0.3237 0.3839, -0.4518 -0.3237 0.3543, -0.4528 -0.315 0.3839, -0.4528 -0.315 0.3543, -0.4528 0.315 0.3839, -0.4528 0.315 0.3543, -0.4518 0.3237 0.3839, -0.4518 0.3237 0.3543, -0.4489 0.332 0.3839, -0.4489 0.332 0.3543, -0.4442 0.3395 0.3839, -0.4442 0.3395 0.3543, -0.4379 0.3457 0.3839, -0.4379 0.3457 0.3543, -0.4305 0.3504 0.3839, -0.4305 0.3504 0.3543, -0.4221 0.3533 0.3839, -0.4221 0.3533 0.3543, -0.4134 0.3543 0.3839, -0.4134 0.3543 0.3543
            ]
        }
        coordIndex [
            0,1,2,-1,0,2,3,-1,3,2,4,-1,3,4,5,-1,5,4,6,-1,5,6,7,-1,7,6,8,-1,7,8,9,-1,9,8,10,-1,9,10,11,-1,11,10,12,-1,11,12,13,-1,13,12,14,-1,13,14,15,-1,16,17,14,-1,14,17,15,-1,17,16,18,-1,17,18,19,-1,19,18,20,-1,19,20,21,-1,21,20,22,-1,21,22,23,-1,23,22,24,-1,23,24,25,-1,25,24,26,-1,25,26,27,-1,27,26,28,-1,27,28,29,-1,29,28,30,-1,29,30,31,-1,32,33,30,-1,30,33,31,-1,33,32,34,-1,33,34,35,-1,35,34,36,-1,35,36,37,-1,37,36,38,-1,37,38,39,-1,39,38,40,-1,39,40,41,-1,41,40,42,-1,41,42,43,-1,43,42,44,-1,43,44,45,-1,45,44,46,-1,45,46,47,-1,48,49,46,-1,46,49,47,-1,49,48,50,-1,49,50,51,-1,51,50,52,-1,51,52,53,-1,53,52,54,-1,53,54,55,-1,55,54,56,-1,55,56,57,-1,57,56,58,-1,57,58,59,-1,59,58,60,-1,59,60,61,-1,61,60,62,-1,61,62,63,-1,1,0,62,-1,62,0,63,-1,
        ]
    }
}
Shape{
    appearance Appearance {
        material  Material {
            diffuseColor 0.10980392156862745 0.10980392156862745 0.10980392156862745
            specularColor 0.0784313725490196 0.0784313725490196 0.0784313725490196
            ambientIntensity 0.1098
            transparency 0.0
            shininess 0.5
        }
    }
    geometry IndexedFaceSet {
        ccw TRUE
        solid FALSE
        coord DEF co Coordinate {
            point [
                0.4921 -0.3642 0.0, 0.4921 -0.1673 0.0, 0.4921 -0.3642 0.3543, 0.4921 -0.0002 0.0, 0.4921 0.3642 0.3543, 0.4921 0.1673 0.0, 0.4921 0.3642 0.0, -0.4626 0.3937 0.0, -0.4626 0.3937 0.3543, -0.2264 0.3937 0.0, -0.0354 0.3937 0.3543, -0.0354 0.3937 0.0, -0.4921 -0.1673 0.0, -0.4921 -0.3642 0.0, -0.4921 -0.3642 0.3543, -0.4921 0.3642 0.3543, -0.4921 0.3642 0.0, -0.4921 0.1673 0.0, -0.4921 -0.0002 0.0, 0.4626 -0.3937 0.0, 0.4626 -0.3937 0.3543, 0.2264 -0.3937 0.0, 0.0354 -0.3937 0.3543, 0.0354 -0.3937 0.0
            ]
        }
        coordIndex [
            0,1,2,-1,2,1,3,-1,2,3,4,-1,4,3,5,-1,4,5,6,-1,7,8,9,-1,9,8,10,-1,9,10,11,-1,12,13,14,-1,15,16,17,-1,15,17,14,-1,14,17,18,-1,14,18,12,-1,19,20,21,-1,21,20,22,-1,21,22,23,-1,
        ]
    }
}
Shape{
    appearance Appearance {
        material  Material {
            diffuseColor 0.9686274509803922 0.8784313725490196 0.6
            specularColor 0.6784313725490196 0.615686274509804 0.4196078431372549
            ambientIntensity 0.8737
            transparency 0.0
            shininess 0.5
        }
    }
    geometry IndexedFaceSet {
        ccw TRUE
        solid FALSE
        coord DEF co Coordinate {
            point [
                0.2264 0.3937 0.0, 0.4626 0.3937 0.0, 0.4633 0.3871 0.0, 0.2264 0.1673 0.0, 0.4655 0.3809 0.0, 0.469 0.3753 0.0, 0.4737 0.3706 0.0, 0.4793 0.3671 0.0, 0.4921 0.1673 0.0, 0.4856 0.3649 0.0, 0.4921 0.3642 0.0, 0.4845 -0.3652 0.3543, 0.4921 -0.3642 0.3543, 0.4528 -0.315 0.3543, 0.4774 -0.3681 0.3543, 0.0251 0.3686 0.3543, 0.0177 0.363 0.3543, 0.4134 0.3543 0.3543, 0.0092 0.3595 0.3543, 0.0 0.3583 0.3543, -0.4134 0.3543 0.3543, -0.0092 0.3595 0.3543, -0.0177 0.363 0.3543, -0.0251 0.3686 0.3543, -0.0307 0.376 0.3543, -0.0354 0.3937 0.3543, -0.4626 0.3937 0.3543, -0.0342 0.3845 0.3543, -0.4636 0.3861 0.3543, -0.4921 0.3642 0.3543, -0.4921 -0.3642 0.3543, -0.4845 0.3652 0.3543, -0.4845 -0.3652 0.3543, 0.4379 -0.3457 0.3543, 0.4666 -0.3789 0.3543, 0.4442 -0.3395 0.3543, 0.4712 -0.3728 0.3543, 0.4489 -0.332 0.3543, 0.4518 -0.3237 0.3543, -0.4221 0.3533 0.3543, -0.4666 0.3789 0.3543, -0.4305 0.3504 0.3543, -0.4774 0.3681 0.3543, -0.4528 -0.315 0.3543, -0.4712 0.3728 0.3543, -0.4528 0.315 0.3543, -0.4518 0.3237 0.3543, -0.4518 -0.3237 0.3543, -0.4774 -0.3681 0.3543, -0.4489 -0.332 0.3543, -0.0342 -0.3845 0.3543, -0.0307 -0.376 0.3543, -0.4712 -0.3728 0.3543, -0.0251 -0.3686 0.3543, 0.0307 -0.376 0.3543, 0.4134 -0.3543 0.3543, 0.0251 -0.3686 0.3543, 0.0177 -0.363 0.3543, 0.4626 0.3937 0.3543, 0.0354 0.3937 0.3543, 0.4633 0.3871 0.3543, 0.0342 0.3845 0.3543, 0.0307 0.376 0.3543, 0.4442 0.3395 0.3543, 0.4489 0.332 0.3543, 0.4856 0.3649 0.3543, 0.4518 0.3237 0.3543, -0.4379 -0.3457 0.3543, -0.4442 -0.3395 0.3543, -0.4626 -0.3937 0.3543, -0.0354 -0.3937 0.3543, -0.4636 -0.3861 0.3543, -0.4666 -0.3789 0.3543, -0.4134 -0.3543 0.3543, -0.4221 -0.3533 0.3543, -0.4305 -0.3504 0.3543, 0.0354 -0.3937 0.3543, 0.4626 -0.3937 0.3543, 0.0342 -0.3845 0.3543, 0.4636 -0.3861 0.3543, 0.4921 0.3642 0.3543, 0.4528 0.315 0.3543, 0.4305 -0.3504 0.3543, 0.4221 -0.3533 0.3543, 0.4793 0.3671 0.3543, 0.4737 0.3706 0.3543, 0.4379 0.3457 0.3543, -0.4489 0.332 0.3543, -0.4442 0.3395 0.3543, -0.4379 0.3457 0.3543, -0.0177 -0.363 0.3543, -0.0092 -0.3595 0.3543, 0.0 -0.3583 0.3543, 0.0092 -0.3595 0.3543, 0.4221 0.3533 0.3543, 0.4305 0.3504 0.3543, 0.4655 0.3809 0.3543, 0.469 0.3753 0.3543
            ]
        }
        coordIndex [
            0,1,2,-1,0,2,3,-1,3,2,4,-1,3,4,5,-1,5,6,3,-1,3,6,7,-1,3,7,8,-1,8,7,9,-1,8,9,10,-1,11,12,13,-1,11,13,14,-1,15,16,17,-1,16,18,17,-1,17,18,19,-1,17,19,20,-1,20,19,21,-1,21,22,20,-1,20,22,23,-1,20,23,24,-1,25,26,27,-1,27,26,28,-1,29,30,31,-1,31,30,32,-1,33,34,35,-1,35,34,36,-1,35,36,37,-1,37,36,14,-1,37,14,38,-1,38,14,13,-1,24,27,20,-1,20,27,28,-1,20,28,39,-1,39,28,40,-1,39,40,41,-1,42,43,44,-1,44,43,45,-1,44,45,46,-1,42,31,43,-1,43,31,32,-1,43,32,47,-1,47,32,48,-1,47,48,49,-1,50,51,52,-1,52,51,53,-1,54,55,56,-1,56,55,57,-1,58,59,60,-1,60,59,61,-1,60,61,17,-1,17,61,62,-1,17,62,15,-1,63,64,65,-1,65,64,66,-1,52,67,48,-1,48,67,68,-1,48,68,49,-1,69,70,71,-1,71,70,50,-1,71,50,72,-1,72,50,52,-1,73,74,52,-1,52,74,75,-1,52,75,67,-1,76,77,78,-1,78,77,79,-1,12,80,13,-1,13,80,65,-1,13,65,81,-1,81,65,66,-1,33,82,34,-1,34,82,83,-1,34,83,79,-1,79,83,55,-1,79,55,78,-1,78,55,54,-1,65,84,63,-1,63,84,85,-1,63,85,86,-1,46,87,44,-1,44,87,88,-1,44,88,40,-1,40,88,89,-1,40,89,41,-1,53,90,52,-1,52,90,91,-1,52,91,73,-1,73,91,92,-1,73,92,55,-1,55,92,93,-1,55,93,57,-1,17,94,60,-1,60,94,95,-1,60,95,96,-1,96,95,86,-1,96,86,97,-1,97,86,85,-1,
        ]
    }
}
Shape{
    appearance Appearance {
        material  Material {
            diffuseColor 0.7764705882352941 0.7568627450980392 0.7372549019607844
            specularColor 0.38823529411764707 0.3764705882352941 0.3686274509803922
            ambientIntensity 0.7605
            transparency 0.0
            shininess 0.5
        }
    }
    geometry IndexedFaceSet {
        ccw TRUE
        solid FALSE
        coord DEF co Coordinate {
            point [
                0.4134 -0.3346 0.3839, 0.4134 -0.3543 0.3839, 0.4178 -0.3342 0.3839, 0.4221 -0.3533 0.3839, 0.4219 -0.3327 0.3839, 0.4305 -0.3504 0.3839, 0.4257 -0.3304 0.3839, 0.4379 -0.3457 0.3839, 0.4288 -0.3272 0.3839, 0.4442 -0.3395 0.3839, 0.4311 -0.3235 0.3839, 0.4489 -0.332 0.3839, 0.4326 -0.3193 0.3839, 0.4518 -0.3237 0.3839, 0.4331 -0.315 0.3839, 0.4528 -0.315 0.3839, 0.4331 0.315 0.3839, 0.4528 0.315 0.3839, 0.4326 0.3193 0.3839, 0.4518 0.3237 0.3839, 0.4311 0.3235 0.3839, 0.4489 0.332 0.3839, 0.4288 0.3272 0.3839, 0.4442 0.3395 0.3839, 0.4257 0.3304 0.3839, 0.4379 0.3457 0.3839, 0.4219 0.3327 0.3839, 0.4305 0.3504 0.3839, 0.4178 0.3342 0.3839, 0.4221 0.3533 0.3839, 0.4134 0.3346 0.3839, 0.4134 0.3543 0.3839, -0.4134 0.3346 0.3839, -0.4134 0.3543 0.3839, -0.4178 0.3342 0.3839, -0.4221 0.3533 0.3839, -0.4219 0.3327 0.3839, -0.4305 0.3504 0.3839, -0.4257 0.3304 0.3839, -0.4379 0.3457 0.3839, -0.4288 0.3272 0.3839, -0.4442 0.3395 0.3839, -0.4311 0.3235 0.3839, -0.4489 0.332 0.3839, -0.4326 0.3193 0.3839, -0.4518 0.3237 0.3839, -0.4331 0.315 0.3839, -0.4528 0.315 0.3839, -0.4331 -0.315 0.3839, -0.4528 -0.315 0.3839, -0.4326 -0.3193 0.3839, -0.4518 -0.3237 0.3839, -0.4311 -0.3235 0.3839, -0.4489 -0.332 0.3839, -0.4288 -0.3272 0.3839, -0.4442 -0.3395 0.3839, -0.4257 -0.3304 0.3839, -0.4379 -0.3457 0.3839, -0.4219 -0.3327 0.3839, -0.4305 -0.3504 0.3839, -0.4178 -0.3342 0.3839, -0.4221 -0.3533 0.3839, -0.4134 -0.3346 0.3839, -0.4134 -0.3543 0.3839, 0.4331 -0.315 0.3937, 0.4326 -0.3193 0.3937, 0.4311 -0.3235 0.3937, 0.4288 -0.3272 0.3937, 0.4257 -0.3304 0.3937, 0.4219 -0.3327 0.3937, 0.4178 -0.3342 0.3937, 0.4134 -0.3346 0.3937, -0.4134 -0.3346 0.3937, -0.4178 -0.3342 0.3937, -0.4219 -0.3327 0.3937, -0.4257 -0.3304 0.3937, -0.4288 -0.3272 0.3937, -0.4311 -0.3235 0.3937, -0.4326 -0.3193 0.3937, -0.4331 -0.315 0.3937, -0.4331 0.315 0.3937, -0.4326 0.3193 0.3937, -0.4311 0.3235 0.3937, -0.4288 0.3272 0.3937, -0.4257 0.3304 0.3937, -0.4219 0.3327 0.3937, -0.4178 0.3342 0.3937, -0.4134 0.3346 0.3937, 0.4134 0.3346 0.3937, 0.4178 0.3342 0.3937, 0.4219 0.3327 0.3937, 0.4257 0.3304 0.3937, 0.4288 0.3272 0.3937, 0.4311 0.3235 0.3937, 0.4326 0.3193 0.3937, 0.4331 0.315 0.3937, -0.3396 -0.2106 0.3937, -0.3288 -0.2121 0.3937, -0.31 -0.2819 0.3937, -0.3034 -0.2733 0.3937, -0.2992 -0.2632 0.3937, -0.3034 -0.2315 0.3937, -0.2992 -0.2416 0.3937, -0.2978 -0.2524 0.3937, -0.3504 -0.2121 0.3937, -0.3604 -0.2162 0.3937, -0.3691 -0.2229 0.3937, -0.3396 -0.2941 0.3937, -0.3288 -0.2927 0.3937, -0.3187 -0.2886 0.3937, -0.3504 -0.2927 0.3937, -0.3604 -0.2886 0.3937, -0.3691 -0.2819 0.3937, -0.3799 -0.2632 0.3937, -0.3813 -0.2524 0.3937, -0.3799 -0.2416 0.3937, -0.3757 -0.2315 0.3937, -0.3757 -0.2733 0.3937, -0.3187 -0.2162 0.3937, -0.31 -0.2229 0.3937
            ]
        }
        coordIndex [
            0,1,2,-1,2,1,3,-1,2,3,4,-1,4,3,5,-1,4,5,6,-1,6,5,7,-1,6,7,8,-1,8,7,9,-1,8,9,10,-1,10,9,11,-1,10,11,12,-1,12,11,13,-1,12,13,14,-1,14,13,15,-1,14,15,16,-1,16,15,17,-1,16,17,18,-1,18,17,19,-1,18,19,20,-1,20,19,21,-1,20,21,22,-1,22,21,23,-1,22,23,24,-1,24,23,25,-1,24,25,26,-1,26,25,27,-1,26,27,28,-1,28,27,29,-1,28,29,30,-1,30,29,31,-1,30,31,32,-1,32,31,33,-1,32,33,34,-1,34,33,35,-1,34,35,36,-1,36,35,37,-1,36,37,38,-1,38,37,39,-1,38,39,40,-1,40,39,41,-1,40,41,42,-1,42,41,43,-1,42,43,44,-1,44,43,45,-1,44,45,46,-1,46,45,47,-1,46,47,48,-1,48,47,49,-1,48,49,50,-1,50,49,51,-1,50,51,52,-1,52,51,53,-1,52,53,54,-1,54,53,55,-1,54,55,56,-1,56,55,57,-1,56,57,58,-1,58,57,59,-1,58,59,60,-1,60,59,61,-1,60,61,62,-1,62,61,63,-1,62,63,0,-1,0,63,1,-1,14,64,65,-1,14,65,12,-1,12,65,66,-1,12,66,10,-1,10,66,67,-1,10,67,8,-1,8,67,68,-1,8,68,6,-1,6,68,69,-1,6,69,4,-1,4,69,70,-1,4,70,2,-1,2,70,71,-1,2,71,0,-1,62,0,72,-1,72,0,71,-1,62,72,73,-1,62,73,60,-1,60,73,74,-1,60,74,58,-1,58,74,75,-1,58,75,56,-1,56,75,76,-1,56,76,54,-1,54,76,77,-1,54,77,52,-1,52,77,78,-1,52,78,50,-1,50,78,79,-1,50,79,48,-1,46,48,80,-1,80,48,79,-1,46,80,81,-1,46,81,44,-1,44,81,82,-1,44,82,42,-1,42,82,83,-1,42,83,40,-1,40,83,84,-1,40,84,38,-1,38,84,85,-1,38,85,36,-1,36,85,86,-1,36,86,34,-1,34,86,87,-1,34,87,32,-1,30,32,88,-1,88,32,87,-1,30,88,89,-1,30,89,28,-1,28,89,90,-1,28,90,26,-1,26,90,91,-1,26,91,24,-1,24,91,92,-1,24,92,22,-1,22,92,93,-1,22,93,20,-1,20,93,94,-1,20,94,18,-1,18,94,95,-1,18,95,16,-1,14,16,64,-1,64,16,95,-1,96,97,87,-1,98,71,99,-1,99,71,100,-1,101,102,64,-1,64,102,103,-1,64,103,100,-1,87,97,88,-1,104,80,105,-1,105,80,106,-1,100,71,64,-1,64,71,70,-1,64,70,69,-1,69,68,64,-1,64,68,67,-1,64,67,65,-1,65,67,66,-1,107,72,108,-1,108,72,71,-1,108,71,109,-1,109,71,98,-1,107,110,72,-1,72,110,111,-1,72,111,73,-1,73,111,112,-1,113,114,79,-1,79,114,115,-1,79,115,80,-1,80,115,116,-1,80,116,106,-1,113,79,117,-1,117,79,78,-1,117,78,77,-1,77,76,117,-1,117,76,75,-1,117,75,112,-1,112,75,74,-1,112,74,73,-1,83,86,84,-1,84,86,85,-1,104,96,80,-1,80,96,87,-1,80,87,81,-1,81,87,86,-1,81,86,82,-1,82,86,83,-1,64,95,101,-1,101,95,94,-1,101,94,93,-1,97,118,88,-1,88,118,119,-1,88,119,89,-1,89,119,101,-1,89,101,90,-1,93,92,101,-1,101,92,91,-1,101,91,90,-1,
        ]
    }
}
Shape{
    appearance Appearance {
        material  Material {
            diffuseColor 0.9686274509803922 0.8784313725490196 0.6
            specularColor 0.6784313725490196 0.615686274509804 0.4196078431372549
            ambientIntensity 0.8737
            transparency 0.0
            shininess 0.5
        }
    }
    geometry IndexedFaceSet {
        ccw TRUE
        solid FALSE
        coord DEF co Coordinate {
            point [
                -0.4921 0.3642 0.0, -0.4921 0.3642 0.3543, -0.4845 0.3652 0.0, -0.4845 0.3652 0.3543, -0.4774 0.3681 0.0, -0.4774 0.3681 0.3543, -0.4712 0.3728 0.0, -0.4712 0.3728 0.3543, -0.4666 0.3789 0.0, -0.4666 0.3789 0.3543, -0.4636 0.3861 0.0, -0.4636 0.3861 0.3543, -0.4626 0.3937 0.0, -0.4626 0.3937 0.3543, -0.0354 0.3937 0.0, -0.0354 0.3937 0.3543, -0.0342 0.3845 0.0, -0.0342 0.3845 0.3543, -0.0307 0.376 0.0, -0.0307 0.376 0.3543, -0.0251 0.3686 0.0, -0.0251 0.3686 0.3543, -0.0193 0.3642 0.0, -0.0177 0.363 0.3543, 0.0354 0.3937 0.3543, 0.0354 0.3937 0.0, 0.0342 0.3845 0.3543, 0.0342 0.3845 0.0, 0.0307 0.376 0.3543, 0.0307 0.376 0.0, 0.0251 0.3686 0.3543, 0.0251 0.3686 0.0, 0.0177 0.363 0.3543, 0.0177 0.363 0.0, 0.0092 0.3595 0.3543, 0.0092 0.3595 0.0, 0.0 0.3583 0.3543, 0.0 0.3583 0.0, -0.0092 0.3595 0.3543, -0.0092 0.3595 0.0, -0.0177 0.363 0.0, 0.4626 0.3937 0.0, 0.4626 0.3937 0.3543, 0.4633 0.3871 0.0, 0.4633 0.3871 0.3543, 0.4655 0.3809 0.0, 0.4655 0.3809 0.3543, 0.469 0.3753 0.0, 0.469 0.3753 0.3543, 0.4737 0.3706 0.0, 0.4737 0.3706 0.3543, 0.4793 0.3671 0.0, 0.4793 0.3671 0.3543, 0.4856 0.3649 0.0, 0.4856 0.3649 0.3543, 0.4921 0.3642 0.0, 0.4921 0.3642 0.3543, 0.4921 -0.3642 0.0, 0.4921 -0.3642 0.3543, 0.4845 -0.3652 0.0, 0.4845 -0.3652 0.3543, 0.4774 -0.3681 0.0, 0.4774 -0.3681 0.3543, 0.4712 -0.3728 0.0, 0.4712 -0.3728 0.3543, 0.4666 -0.3789 0.0, 0.4666 -0.3789 0.3543, 0.4636 -0.3861 0.0, 0.4636 -0.3861 0.3543, 0.4626 -0.3937 0.0, 0.4626 -0.3937 0.3543, 0.0354 -0.3937 0.0, 0.0354 -0.3937 0.3543, 0.0342 -0.3845 0.0, 0.0342 -0.3845 0.3543, 0.0307 -0.376 0.0, 0.0307 -0.376 0.3543, 0.0251 -0.3686 0.0, 0.0251 -0.3686 0.3543, 0.0177 -0.363 0.0, 0.0177 -0.363 0.3543, 0.0092 -0.3595 0.0, 0.0092 -0.3595 0.3543, 0.0 -0.3583 0.0, 0.0 -0.3583 0.3543, -0.0092 -0.3595 0.0, -0.0092 -0.3595 0.3543, -0.0177 -0.363 0.0, -0.0177 -0.363 0.3543, -0.0193 -0.3642 0.0, -0.0251 -0.3686 0.3543, -0.0354 -0.3937 0.3543, -0.0354 -0.3937 0.0, -0.0342 -0.3845 0.3543, -0.0342 -0.3845 0.0, -0.0307 -0.376 0.3543, -0.0307 -0.376 0.0, -0.0251 -0.3686 0.0, -0.4626 -0.3937 0.0, -0.4626 -0.3937 0.3543, -0.4636 -0.3861 0.0, -0.4636 -0.3861 0.3543, -0.4666 -0.3789 0.0, -0.4666 -0.3789 0.3543, -0.4712 -0.3728 0.0, -0.4712 -0.3728 0.3543, -0.4774 -0.3681 0.0, -0.4774 -0.3681 0.3543, -0.4845 -0.3652 0.0, -0.4845 -0.3652 0.3543, -0.4921 -0.3642 0.0, -0.4921 -0.3642 0.3543
            ]
        }
        coordIndex [
            0,1,2,-1,2,1,3,-1,2,3,4,-1,4,3,5,-1,4,5,6,-1,6,5,7,-1,6,7,8,-1,8,7,9,-1,8,9,10,-1,10,9,11,-1,10,11,12,-1,12,11,13,-1,14,15,16,-1,16,15,17,-1,16,17,18,-1,18,17,19,-1,18,19,20,-1,20,19,21,-1,20,21,22,-1,22,21,23,-1,24,25,26,-1,26,25,27,-1,26,27,28,-1,28,27,29,-1,28,29,30,-1,30,29,31,-1,30,31,32,-1,32,31,33,-1,32,33,34,-1,34,33,35,-1,34,35,36,-1,36,35,37,-1,36,37,38,-1,38,37,39,-1,38,39,23,-1,23,39,40,-1,23,40,22,-1,41,42,43,-1,43,42,44,-1,43,44,45,-1,45,44,46,-1,45,46,47,-1,47,46,48,-1,47,48,49,-1,49,48,50,-1,49,50,51,-1,51,50,52,-1,51,52,53,-1,53,52,54,-1,53,54,55,-1,55,54,56,-1,57,58,59,-1,59,58,60,-1,59,60,61,-1,61,60,62,-1,61,62,63,-1,63,62,64,-1,63,64,65,-1,65,64,66,-1,65,66,67,-1,67,66,68,-1,67,68,69,-1,69,68,70,-1,71,72,73,-1,73,72,74,-1,73,74,75,-1,75,74,76,-1,75,76,77,-1,77,76,78,-1,77,78,79,-1,79,78,80,-1,79,80,81,-1,81,80,82,-1,81,82,83,-1,83,82,84,-1,83,84,85,-1,85,84,86,-1,85,86,87,-1,87,86,88,-1,87,88,89,-1,89,88,90,-1,91,92,93,-1,93,92,94,-1,93,94,95,-1,95,94,96,-1,95,96,90,-1,90,96,97,-1,90,97,89,-1,98,99,100,-1,100,99,101,-1,100,101,102,-1,102,101,103,-1,102,103,104,-1,104,103,105,-1,104,105,106,-1,106,105,107,-1,106,107,108,-1,108,107,109,-1,108,109,110,-1,110,109,111,-1,
        ]
    }
}
Shape{
    appearance Appearance {
        material  Material {
            diffuseColor 0.10980392156862745 0.10980392156862745 0.10980392156862745
            specularColor 0.0784313725490196 0.0784313725490196 0.0784313725490196
            ambientIntensity 0.1098
            transparency 0.0
            shininess 0.5
        }
    }
    geometry IndexedFaceSet {
        ccw TRUE
        solid FALSE
        coord DEF co Coordinate {
            point [
                -0.2978 -0.2524 0.374, -0.2978 -0.2524 0.3937, -0.2992 -0.2416 0.374, -0.2992 -0.2416 0.3937, -0.3034 -0.2315 0.374, -0.3034 -0.2315 0.3937, -0.31 -0.2229 0.374, -0.31 -0.2229 0.3937, -0.3187 -0.2162 0.374, -0.3187 -0.2162 0.3937, -0.3288 -0.2121 0.374, -0.3288 -0.2121 0.3937, -0.3396 -0.2106 0.374, -0.3396 -0.2106 0.3937, -0.3504 -0.2121 0.374, -0.3504 -0.2121 0.3937, -0.3604 -0.2162 0.374, -0.3604 -0.2162 0.3937, -0.3691 -0.2229 0.374, -0.3691 -0.2229 0.3937, -0.3757 -0.2315 0.374, -0.3757 -0.2315 0.3937, -0.3799 -0.2416 0.374, -0.3799 -0.2416 0.3937, -0.3813 -0.2524 0.374, -0.3813 -0.2524 0.3937, -0.3799 -0.2632 0.374, -0.3799 -0.2632 0.3937, -0.3757 -0.2733 0.374, -0.3757 -0.2733 0.3937, -0.3691 -0.2819 0.374, -0.3691 -0.2819 0.3937, -0.3604 -0.2886 0.374, -0.3604 -0.2886 0.3937, -0.3504 -0.2927 0.374, -0.3504 -0.2927 0.3937, -0.3396 -0.2941 0.374, -0.3396 -0.2941 0.3937, -0.3288 -0.2927 0.374, -0.3288 -0.2927 0.3937, -0.3187 -0.2886 0.374, -0.3187 -0.2886 0.3937, -0.31 -0.2819 0.374, -0.31 -0.2819 0.3937, -0.3034 -0.2733 0.374, -0.3034 -0.2733 0.3937, -0.2992 -0.2632 0.374, -0.2992 -0.2632 0.3937, -0.3396 -0.2524 0.374
            ]
        }
        coordIndex [
            0,1,2,-1,2,1,3,-1,2,3,4,-1,4,3,5,-1,4,5,6,-1,6,5,7,-1,6,7,8,-1,8,7,9,-1,8,9,10,-1,10,9,11,-1,10,11,12,-1,12,11,13,-1,12,13,14,-1,14,13,15,-1,14,15,16,-1,16,15,17,-1,16,17,18,-1,18,17,19,-1,18,19,20,-1,20,19,21,-1,20,21,22,-1,22,21,23,-1,22,23,24,-1,24,23,25,-1,24,25,26,-1,26,25,27,-1,26,27,28,-1,28,27,29,-1,28,29,30,-1,30,29,31,-1,30,31,32,-1,32,31,33,-1,32,33,34,-1,34,33,35,-1,34,35,36,-1,36,35,37,-1,36,37,38,-1,38,37,39,-1,38,39,40,-1,40,39,41,-1,40,41,42,-1,42,41,43,-1,42,43,44,-1,44,43,45,-1,44,45,46,-1,46,45,47,-1,46,47,0,-1,0,47,1,-1,44,46,48,-1,48,46,0,-1,48,0,2,-1,38,40,48,-1,48,40,42,-1,48,42,44,-1,32,34,48,-1,48,34,36,-1,48,36,38,-1,26,28,48,-1,48,28,30,-1,48,30,32,-1,20,22,48,-1,48,22,24,-1,48,24,26,-1,14,16,48,-1,48,16,18,-1,48,18,20,-1,8,10,48,-1,48,10,12,-1,48,12,14,-1,2,4,48,-1,48,4,6,-1,48,6,8,-1,
        ]
    }
}
Shape{
    appearance Appearance {
        material  Material {
            diffuseColor 1.0 1.0 1.0
            specularColor 0.8784313725490196 0.8784313725490196 0.8784313725490196
            ambientIntensity 1.0
            transparency 0.0
            shininess 0.5
        }
    }
    geometry IndexedFaceSet {
        ccw TRUE
        solid FALSE
        coord DEF co Coordinate {
            point [
                -0.0685 0.0154 0.0039, -0.0672 0.011 0.0039, -0.0817 0.0154 0.0039, -0.0835 0.011 0.0039, -0.0744 0.0318 0.0039, -0.0726 0.0394 0.0039, -0.0577 0.0 0.0039, -0.0635 0.0 0.0039, -0.0748 0.0332 0.0039, -0.075 0.0346 0.0039, -0.0779 0.0394 0.0039, -0.0752 0.0346 0.0039, -0.0754 0.0332 0.0039, -0.0758 0.0318 0.0039, -0.0932 0.0 0.0039, -0.0875 0.0 0.0039, -0.0835 0.011 0.0, -0.0875 0.0 0.0, -0.0672 0.011 0.0, -0.0635 0.0 0.0, -0.0577 0.0 0.0, -0.0726 0.0394 0.0, -0.0779 0.0394 0.0, -0.0932 0.0 0.0, -0.0758 0.0318 0.0, -0.0754 0.0332 0.0, -0.0752 0.0346 0.0, -0.075 0.0346 0.0, -0.0748 0.0332 0.0, -0.0744 0.0318 0.0, -0.0685 0.0154 0.0, -0.0817 0.0154 0.0, -0.0342 0.0394 0.0039, -0.0342 0.0394 0.0, -0.0231 0.0394 0.0039, -0.0231 0.0394 0.0, -0.0399 0.0388 0.0039, -0.0399 0.0388 0.0, -0.0445 0.0371 0.0039, -0.0445 0.0371 0.0, -0.0488 0.0343 0.0039, -0.0488 0.0343 0.0, -0.0489 0.0342 0.0039, -0.0489 0.0342 0.0, -0.0516 0.0311 0.0039, -0.0516 0.0311 0.0, -0.0535 0.0278 0.0039, -0.0535 0.0278 0.0, -0.0545 0.0239 0.0039, -0.0545 0.0239 0.0, -0.0548 0.0202 0.0039, -0.0548 0.0202 0.0, -0.0543 0.0149 0.0039, -0.0543 0.0149 0.0, -0.0528 0.0108 0.0039, -0.0528 0.0108 0.0, -0.0506 0.0073 0.0039, -0.0506 0.0073 0.0, -0.0473 0.0042 0.0039, -0.0473 0.0042 0.0, -0.0432 0.0018 0.0039, -0.0432 0.0018 0.0, -0.0387 0.0004 0.0039, -0.0387 0.0004 0.0, -0.0338 0.0 0.0039, -0.0338 0.0 0.0, -0.0231 0.0 0.0039, -0.0231 0.0 0.0, -0.0469 0.0295 0.0039, -0.045 0.0316 0.0039, -0.0421 0.0334 0.0039, -0.0389 0.0346 0.0039, -0.0342 0.035 0.0039, -0.0284 0.035 0.0039, -0.0284 0.0043 0.0039, -0.034 0.0043 0.0039, -0.0381 0.0047 0.0039, -0.0415 0.0057 0.0039, -0.0441 0.0073 0.0039, -0.0464 0.0095 0.0039, -0.048 0.0122 0.0039, -0.0492 0.0159 0.0039, -0.0495 0.0201 0.0039, -0.0492 0.024 0.0039, -0.0483 0.0271 0.0039, -0.034 0.0043 0.0, -0.0284 0.0043 0.0, -0.0381 0.0047 0.0, -0.0415 0.0057 0.0, -0.0441 0.0073 0.0, -0.0464 0.0095 0.0, -0.048 0.0122 0.0, -0.0492 0.0159 0.0, -0.0495 0.0201 0.0, -0.0492 0.024 0.0, -0.0483 0.0271 0.0, -0.0469 0.0295 0.0, -0.045 0.0316 0.0, -0.0421 0.0334 0.0, -0.0389 0.0346 0.0, -0.0342 0.035 0.0, -0.0284 0.035 0.0, 0.0057 0.0394 0.0039, 0.0057 0.0394 0.0, 0.0057 0.0 0.0039, 0.0057 0.0 0.0, -0.0145 0.0394 0.0039, -0.0145 0.0394 0.0, -0.0145 0.035 0.0039, -0.0145 0.035 0.0, 0.0004 0.035 0.0039, 0.0004 0.035 0.0, 0.0004 0.0221 0.0039, 0.0004 0.0221 0.0, -0.0135 0.0221 0.0039, -0.0135 0.0221 0.0, -0.0135 0.0178 0.0039, -0.0135 0.0178 0.0, 0.0004 0.0178 0.0039, 0.0004 0.0178 0.0, 0.0004 0.0043 0.0039, 0.0004 0.0043 0.0, -0.0154 0.0043 0.0039, -0.0154 0.0043 0.0, -0.0154 0.0 0.0039, -0.0154 0.0 0.0, 0.0265 -0.0002 0.0, 0.0242 -0.0005 0.0, 0.0242 -0.0005 0.0039, 0.0291 0.0 0.0, 0.0291 0.0 0.0039, 0.0329 0.0013 0.0039, 0.0329 0.0013 0.0, 0.036 0.0034 0.0039, 0.036 0.0034 0.0, 0.039 0.0065 0.0039, 0.039 0.0065 0.0, 0.0411 0.0102 0.0039, 0.0411 0.0102 0.0, 0.0423 0.0144 0.0039, 0.0423 0.0144 0.0, 0.0427 0.0189 0.0039, 0.0427 0.0189 0.0, 0.0421 0.0245 0.0039, 0.0421 0.0245 0.0, 0.0406 0.029 0.0039, 0.0406 0.029 0.0, 0.0383 0.0327 0.0039, 0.0383 0.0327 0.0, 0.0347 0.0361 0.0039, 0.0347 0.0361 0.0, 0.031 0.0383 0.0039, 0.031 0.0383 0.0, 0.0266 0.0395 0.0039, 0.0266 0.0395 0.0, 0.0226 0.0399 0.0039, 0.0226 0.0399 0.0, 0.0179 0.0395 0.0039, 0.0179 0.0395 0.0, 0.0134 0.0383 0.0039, 0.0134 0.0383 0.0, 0.0134 0.033 0.0039, 0.0134 0.033 0.0, 0.0178 0.0349 0.0039, 0.0178 0.0349 0.0, 0.0226 0.0355 0.0039, 0.0226 0.0355 0.0, 0.0265 0.0351 0.0039, 0.0265 0.0351 0.0, 0.0294 0.034 0.0039, 0.0294 0.034 0.0, 0.0321 0.0322 0.0039, 0.0321 0.0322 0.0, 0.0345 0.0296 0.0039, 0.0345 0.0296 0.0, 0.0361 0.0265 0.0039, 0.0361 0.0265 0.0, 0.0372 0.0223 0.0039, 0.0372 0.0223 0.0, 0.0374 0.0193 0.0039, 0.0374 0.0193 0.0, 0.037 0.015 0.0039, 0.037 0.015 0.0, 0.0359 0.0116 0.0039, 0.0359 0.0116 0.0, 0.0343 0.0089 0.0039, 0.0343 0.0089 0.0, 0.0324 0.0069 0.0039, 0.0324 0.0069 0.0, 0.03 0.0053 0.0039, 0.03 0.0053 0.0, 0.0271 0.0043 0.0039, 0.0271 0.0043 0.0, 0.0235 0.0038 0.0039, 0.0235 0.0038 0.0, 0.0182 0.0044 0.0039, 0.0182 0.0044 0.0, 0.0141 0.006 0.0039, 0.0141 0.006 0.0, 0.0134 0.0064 0.0039, 0.0134 0.0064 0.0, 0.0134 0.002 0.0039, 0.0134 0.002 0.0, 0.0176 0.0003 0.0, 0.0176 0.0003 0.0039, 0.0215 -0.0002 0.0, 0.0231 -0.0005 0.0039, 0.0231 -0.0005 0.0, 0.0662 0.0394 0.0039, 0.0662 0.0394 0.0, 0.0662 0.0 0.0039, 0.0662 0.0 0.0, 0.0609 0.0394 0.0039, 0.0609 0.0394 0.0, 0.0609 0.0043 0.0039, 0.0609 0.0043 0.0, 0.046 0.0043 0.0039, 0.046 0.0043 0.0, 0.046 0.0 0.0039, 0.046 0.0 0.0
            ]
        }
        coordIndex [
            0,1,2,-1,2,1,3,-1,4,5,0,-1,0,5,6,-1,0,6,1,-1,1,6,7,-1,4,8,5,-1,5,8,9,-1,5,9,10,-1,10,9,11,-1,10,11,12,-1,12,13,10,-1,10,13,2,-1,10,2,14,-1,14,2,3,-1,14,3,15,-1,3,16,15,-1,15,16,17,-1,1,18,3,-1,3,18,16,-1,7,19,1,-1,1,19,18,-1,6,20,7,-1,7,20,19,-1,5,21,6,-1,6,21,20,-1,10,22,5,-1,5,22,21,-1,14,23,10,-1,10,23,22,-1,14,15,23,-1,23,15,17,-1,24,13,12,-1,24,12,25,-1,25,12,11,-1,25,11,26,-1,9,27,11,-1,11,27,26,-1,27,9,8,-1,27,8,28,-1,28,8,4,-1,28,4,29,-1,0,30,4,-1,4,30,29,-1,2,31,0,-1,0,31,30,-1,24,31,13,-1,13,31,2,-1,32,33,34,-1,34,33,35,-1,33,32,36,-1,33,36,37,-1,37,36,38,-1,37,38,39,-1,39,38,40,-1,39,40,41,-1,41,40,42,-1,41,42,43,-1,43,42,44,-1,43,44,45,-1,45,44,46,-1,45,46,47,-1,47,46,48,-1,47,48,49,-1,49,48,50,-1,49,50,51,-1,51,50,52,-1,51,52,53,-1,53,52,54,-1,53,54,55,-1,55,54,56,-1,55,56,57,-1,57,56,58,-1,57,58,59,-1,59,58,60,-1,59,60,61,-1,61,60,62,-1,61,62,63,-1,63,62,64,-1,63,64,65,-1,66,67,64,-1,64,67,65,-1,66,34,67,-1,67,34,35,-1,46,44,68,-1,68,44,42,-1,68,42,69,-1,69,42,40,-1,69,40,70,-1,70,40,38,-1,70,38,71,-1,71,38,36,-1,71,36,72,-1,72,36,32,-1,72,32,73,-1,73,32,34,-1,73,34,74,-1,74,34,66,-1,74,66,75,-1,75,66,64,-1,75,64,76,-1,76,64,62,-1,76,62,77,-1,77,62,60,-1,77,60,78,-1,78,60,58,-1,78,58,79,-1,79,58,56,-1,79,56,80,-1,80,56,54,-1,80,54,81,-1,81,54,52,-1,81,52,82,-1,82,52,50,-1,82,50,83,-1,83,50,48,-1,83,48,84,-1,84,48,46,-1,84,46,68,-1,75,85,74,-1,74,85,86,-1,85,75,76,-1,85,76,87,-1,87,76,77,-1,87,77,88,-1,88,77,78,-1,88,78,89,-1,89,78,79,-1,89,79,90,-1,90,79,80,-1,90,80,91,-1,91,80,81,-1,91,81,92,-1,92,81,82,-1,92,82,93,-1,93,82,83,-1,93,83,94,-1,94,83,84,-1,94,84,95,-1,95,84,68,-1,95,68,96,-1,96,68,69,-1,96,69,97,-1,97,69,70,-1,97,70,98,-1,98,70,71,-1,98,71,99,-1,99,71,72,-1,99,72,100,-1,73,101,72,-1,72,101,100,-1,86,101,74,-1,74,101,73,-1,102,103,104,-1,104,103,105,-1,106,107,102,-1,102,107,103,-1,108,109,106,-1,106,109,107,-1,110,111,108,-1,108,111,109,-1,112,113,110,-1,110,113,111,-1,114,115,112,-1,112,115,113,-1,116,117,114,-1,114,117,115,-1,118,119,116,-1,116,119,117,-1,120,121,118,-1,118,121,119,-1,122,123,120,-1,120,123,121,-1,124,125,122,-1,122,125,123,-1,124,104,125,-1,125,104,105,-1,104,124,122,-1,122,120,104,-1,104,120,118,-1,104,118,102,-1,108,106,110,-1,110,106,102,-1,110,102,112,-1,112,102,118,-1,112,118,114,-1,114,118,116,-1,126,127,128,-1,126,128,129,-1,128,130,129,-1,129,130,131,-1,129,131,132,-1,132,131,133,-1,132,133,134,-1,134,133,135,-1,134,135,136,-1,136,135,137,-1,136,137,138,-1,138,137,139,-1,138,139,140,-1,140,139,141,-1,140,141,142,-1,142,141,143,-1,142,143,144,-1,144,143,145,-1,144,145,146,-1,146,145,147,-1,146,147,148,-1,148,147,149,-1,148,149,150,-1,150,149,151,-1,150,151,152,-1,152,151,153,-1,152,153,154,-1,154,153,155,-1,154,155,156,-1,156,155,157,-1,156,157,158,-1,158,157,159,-1,158,159,160,-1,161,162,159,-1,159,162,160,-1,162,161,163,-1,162,163,164,-1,164,163,165,-1,164,165,166,-1,166,165,167,-1,166,167,168,-1,168,167,169,-1,168,169,170,-1,170,169,171,-1,170,171,172,-1,172,171,173,-1,172,173,174,-1,174,173,175,-1,174,175,176,-1,176,175,177,-1,176,177,178,-1,178,177,179,-1,178,179,180,-1,180,179,181,-1,180,181,182,-1,182,181,183,-1,182,183,184,-1,184,183,185,-1,184,185,186,-1,186,185,187,-1,186,187,188,-1,188,187,189,-1,188,189,190,-1,190,189,191,-1,190,191,192,-1,192,191,193,-1,192,193,194,-1,194,193,195,-1,194,195,196,-1,196,195,197,-1,196,197,198,-1,198,197,199,-1,198,199,200,-1,201,202,199,-1,199,202,200,-1,203,202,204,-1,204,202,201,-1,203,204,205,-1,205,204,206,-1,205,206,207,-1,207,206,128,-1,207,128,127,-1,191,128,193,-1,193,128,206,-1,193,206,195,-1,195,206,204,-1,195,204,197,-1,197,204,201,-1,197,201,199,-1,161,159,163,-1,163,159,157,-1,163,157,165,-1,165,157,155,-1,165,155,167,-1,167,155,153,-1,167,153,169,-1,169,153,151,-1,169,151,171,-1,171,151,149,-1,171,149,173,-1,173,149,147,-1,173,147,175,-1,175,147,145,-1,175,145,177,-1,177,145,143,-1,177,143,179,-1,179,143,141,-1,179,141,181,-1,181,141,139,-1,181,139,183,-1,183,139,137,-1,183,137,185,-1,185,137,135,-1,185,135,187,-1,187,135,133,-1,187,133,189,-1,189,133,131,-1,189,131,191,-1,191,131,130,-1,191,130,128,-1,208,209,210,-1,210,209,211,-1,212,213,208,-1,208,213,209,-1,214,215,212,-1,212,215,213,-1,216,217,214,-1,214,217,215,-1,218,219,216,-1,216,219,217,-1,218,210,219,-1,219,210,211,-1,212,208,214,-1,214,208,210,-1,214,210,216,-1,216,210,218,-1,
        ]
    }
}
Shape{
    appearance Appearance {
        material  Material {
            diffuseColor 0.10980392156862745 0.10980392156862745 0.10980392156862745
            specularColor 0.0784313725490196 0.0784313725490196 0.0784313725490196
            ambientIntensity 0.1098
            transparency 0.0
            shininess 0.5
        }
    }
    geometry IndexedFaceSet {
        ccw TRUE
        solid FALSE
        coord DEF co Coordinate {
            point [
                -0.0685 0.0154 0.0, -0.0817 0.0154 0.0, -0.0744 0.0318 0.0, -0.0758 0.0318 0.0, -0.0748 0.0332 0.0, -0.0754 0.0332 0.0, -0.075 0.0346 0.0, -0.0752 0.0346 0.0, -0.0284 0.035 0.0, -0.0284 0.0043 0.0, -0.0342 0.035 0.0, -0.034 0.0043 0.0, -0.0381 0.0047 0.0, -0.0495 0.0201 0.0, -0.0492 0.024 0.0, -0.0483 0.0271 0.0, -0.0389 0.0346 0.0, -0.0415 0.0057 0.0, -0.0441 0.0073 0.0, -0.0464 0.0095 0.0, -0.048 0.0122 0.0, -0.0492 0.0159 0.0, -0.0469 0.0295 0.0, -0.045 0.0316 0.0, -0.0421 0.0334 0.0
            ]
        }
        coordIndex [
            0,1,2,-1,2,1,3,-1,2,3,4,-1,4,3,5,-1,4,5,6,-1,6,5,7,-1,8,9,10,-1,10,9,11,-1,10,11,12,-1,13,14,10,-1,10,14,15,-1,10,15,16,-1,12,17,10,-1,10,17,18,-1,10,18,19,-1,19,20,10,-1,10,20,21,-1,10,21,13,-1,22,23,15,-1,15,23,24,-1,15,24,16,-1,
        ]
    }
}